<svg xmlns="http://www.w3.org/2000/svg" width="149" height="101" fill="none" viewBox="0 0 149 101">
  <path fill="#6567F0" d="M124.222 79.01a36.751 36.751 0 0 1-4.062 3.72c-8.126 6.444-19.386 10.554-31.724 11.561-1.927.16-3.874.24-5.78.24-11.12 0-21.522-2.683-29.279-7.561-7.187-4.519-11.44-10.573-11.979-17.027a17.11 17.11 0 0 1-.04-2.025A143.34 143.34 0 0 0 55.593 74.4c15.852 6.225 31.455 9.247 44.672 9.247 9.483 0 17.748-1.556 23.957-4.638Z"/>
  <path fill="#323232" fill-rule="evenodd" d="M81.079 9.534C65.236 3.31 49.624.288 36.407.288c-17.489 0-30.765 5.296-34.778 15.5-5.69 14.504 9.034 34.464 34.399 49.207l.008.005a22.879 22.879 0 0 0-.198 5.412c1.418 17.136 21.802 29.695 46.808 29.695 2.056 0 4.132-.08 6.239-.26 27.761-2.284 49.023-19.161 47.496-37.705a27.45 27.45 0 0 0-.15-1.306l-.013-.096c-.669-17.16-23.105-38.64-55.14-51.206Zm-39.69 60.419a17.03 17.03 0 0 1-.04-2.02 143.373 143.373 0 0 0 14.224 6.478c15.852 6.225 31.455 9.247 44.672 9.247 9.503 0 17.758-1.566 23.967-4.638l.019-.01-.009.01a37.791 37.791 0 0 1-4.072 3.72c-8.126 6.444-19.386 10.554-31.725 11.562-1.926.16-3.873.239-5.78.239-11.12 0-21.521-2.683-29.278-7.561-7.187-4.519-11.44-10.574-11.978-17.027Zm89.262-8.728-.002-.084c-1-5.907-5.146-11.385-11.787-15.567-7.756-4.878-18.158-7.561-29.288-7.561-1.897 0-3.854.08-5.77.24-12.339 1.007-23.609 5.116-31.724 11.56-4.742 3.77-7.996 8.02-9.593 12.429a142.211 142.211 0 0 0 15.133 6.983c14.554 5.725 29.697 8.867 42.635 8.867 15.582 0 26.643-4.489 29.577-11.97.599-1.506.859-3.142.819-4.897ZM89.573 32.437c10.574 0 20.323 2.252 28.159 6.134-9.57-9.366-23.155-17.746-38.69-23.85-14.554-5.715-29.698-8.857-42.635-8.857-15.572 0-26.643 4.478-29.588 11.97-2.545 6.473.889 15.52 9.434 24.807 5.59 6.064 12.855 11.78 21.319 16.816l.003-.008c5.61-13.825 23.628-24.927 45.77-26.753 2.096-.18 4.182-.26 6.228-.26Z" clip-rule="evenodd"/>
  <path fill="#323232" d="M139.775 56.227c.409.23.858.34 1.298.34a2.69 2.69 0 0 0 2.346-1.377l4.452-7.98a2.683 2.683 0 0 0-1.038-3.641 2.687 2.687 0 0 0-3.644 1.037l-4.452 7.98a2.682 2.682 0 0 0 1.038 3.641Z"/>
</svg>
